<svg xmlns="http://www.w3.org/2000/svg" viewBox="0 0 1200 600" role="img" aria-labelledby="title desc">
  <title id="title">Stylized Earth texture</title>
  <desc id="desc">A local blue Earth texture with continent-like land masses for the rotating academic journey globe.</desc>
  <defs>
    <linearGradient id="ocean" x1="0" x2="1" y1="0" y2="1">
      <stop offset="0" stop-color="#0f5ea8"/>
      <stop offset=".5" stop-color="#0b8ac6"/>
      <stop offset="1" stop-color="#08345f"/>
    </linearGradient>
    <filter id="soften">
      <feGaussianBlur stdDeviation="1.5"/>
    </filter>
  </defs>
  <rect width="1200" height="600" fill="url(#ocean)"/>
  <g opacity=".22" fill="#dbeafe">
    <circle cx="230" cy="110" r="90" filter="url(#soften)"/>
    <circle cx="620" cy="130" r="120" filter="url(#soften)"/>
    <circle cx="930" cy="95" r="80" filter="url(#soften)"/>
  </g>
  <g fill="#6ee7b7" stroke="#064e3b" stroke-width="2" opacity=".92">
    <path d="M154 160 C122 190 120 248 153 281 C191 321 244 290 276 323 C313 360 267 409 296 456 C328 507 405 472 404 417 C403 369 356 350 350 310 C343 263 389 232 364 186 C337 137 203 113 154 160Z"/>
    <path d="M318 62 C284 72 260 104 267 137 C274 168 320 165 352 188 C386 212 391 257 430 263 C467 268 490 236 474 198 C458 159 417 149 397 115 C377 82 354 51 318 62Z"/>
    <path d="M525 148 C488 172 471 219 493 249 C519 285 563 266 587 295 C612 325 582 369 611 394 C641 420 705 400 725 360 C746 317 706 293 694 257 C680 216 713 185 684 152 C651 115 566 121 525 148Z"/>
    <path d="M638 76 C679 50 765 58 805 94 C840 126 806 163 833 192 C860 221 926 201 948 241 C969 279 927 322 883 316 C842 310 832 267 788 260 C748 254 714 285 681 260 C648 235 674 189 639 166 C609 146 605 98 638 76Z"/>
    <path d="M837 344 C876 319 936 333 957 375 C976 414 943 449 965 487 C982 517 1040 515 1048 553 C1056 590 980 596 927 578 C874 560 861 511 824 489 C787 467 743 486 722 455 C697 418 789 374 837 344Z"/>
    <path d="M1018 161 C1048 136 1105 148 1126 183 C1148 221 1112 255 1127 290 C1143 327 1192 325 1198 359 L1198 600 L1095 600 C1073 560 1086 528 1065 493 C1043 456 1004 468 984 437 C961 401 1000 374 989 336 C976 292 928 288 930 246 C932 207 988 186 1018 161Z"/>
    <path d="M57 362 C88 339 137 348 156 382 C174 413 145 439 164 465 C182 491 227 477 239 509 C252 544 198 584 151 572 C107 561 110 517 77 497 C49 480 14 499 1 468 L1 392 C15 383 39 375 57 362Z"/>
  </g>
  <g fill="none" stroke="#bfdbfe" stroke-width="1" opacity=".28">
    <path d="M0 120 H1200M0 240 H1200M0 360 H1200M0 480 H1200"/>
    <path d="M150 0 V600M300 0 V600M450 0 V600M600 0 V600M750 0 V600M900 0 V600M1050 0 V600"/>
  </g>
</svg>
