<svg xmlns="http://www.w3.org/2000/svg" viewBox="0 0 1200 620" role="img" aria-labelledby="title desc">
  <title id="title">Stylized global map</title>
  <desc id="desc">A soft blue world map used as a local static background for Sarah Jing's academic journey.</desc>
  <defs>
    <linearGradient id="ocean" x1="0" x2="1" y1="0" y2="1">
      <stop offset="0" stop-color="#e0f2fe"/>
      <stop offset=".55" stop-color="#dbeafe"/>
      <stop offset="1" stop-color="#fdf2f8"/>
    </linearGradient>
    <filter id="soft">
      <feGaussianBlur stdDeviation="1.1"/>
    </filter>
  </defs>
  <rect width="1200" height="620" rx="34" fill="url(#ocean)"/>
  <g fill="none" stroke="#93c5fd" stroke-width="1" opacity=".34">
    <path d="M0 124H1200M0 248H1200M0 372H1200M0 496H1200"/>
    <path d="M150 0V620M300 0V620M450 0V620M600 0V620M750 0V620M900 0V620M1050 0V620"/>
  </g>
  <g fill="#1e3a8a" opacity=".18" filter="url(#soft)">
    <path d="M156 168C118 207 123 270 165 305C207 341 264 312 301 349C340 388 289 437 324 489C359 542 441 508 438 449C435 397 386 377 379 333C370 282 420 250 390 199C358 143 211 114 156 168Z"/>
    <path d="M320 70C280 84 258 119 269 153C278 184 324 181 360 208C397 236 406 284 449 288C490 292 516 256 498 214C480 173 435 160 411 123C387 85 361 56 320 70Z"/>
    <path d="M527 160C488 187 472 235 499 270C528 308 574 288 602 320C632 355 596 402 630 430C665 460 733 435 755 390C779 342 735 317 722 278C707 233 742 200 709 164C672 124 570 132 527 160Z"/>
    <path d="M647 80C693 49 788 61 832 101C871 136 832 177 864 210C897 243 969 220 993 266C1015 309 969 354 921 348C874 342 864 295 815 288C771 282 735 316 698 288C661 261 691 210 651 184C617 161 611 104 647 80Z"/>
    <path d="M854 360C899 331 963 348 986 394C1007 438 969 475 995 516C1015 548 1080 546 1089 588C1091 598 1088 609 1081 620H878C865 592 847 568 817 551C773 526 727 545 704 511C677 471 801 393 854 360Z"/>
    <path d="M1019 170C1054 140 1118 153 1142 193C1166 237 1125 273 1144 313C1162 354 1200 350 1200 392V620H1114C1091 574 1105 541 1081 503C1056 463 1014 477 991 443C964 403 1008 372 994 330C978 283 928 278 932 233C936 193 985 198 1019 170Z"/>
    <path d="M58 378C93 350 147 363 169 400C190 435 156 464 179 494C200 522 251 508 266 543C277 571 252 600 221 620H81C55 597 62 558 30 539C16 531 5 529 0 529V409C17 399 40 392 58 378Z"/>
  </g>
  <g fill="#0f172a" opacity=".28">
    <circle cx="240" cy="270" r="4"/>
    <circle cx="760" cy="300" r="4"/>
    <circle cx="785" cy="282" r="4"/>
    <circle cx="546" cy="250" r="4"/>
  </g>
</svg>
